<svg width="64" height="64" viewBox="0 0 64 64" fill="none" xmlns="http://www.w3.org/2000/svg">
<g filter="url(#filter0_d)">
<rect x="8" y="4" width="48" height="48" rx="24" fill="#D62323"/>
<path d="M33.6001 29L33.6001 26L30.4001 26L30.4001 29L33.6001 29Z" fill="white"/>
<path d="M33.6001 35L33.6001 32L30.4001 32L30.4001 35L33.6001 35Z" fill="white"/>
<path d="M33.6001 23L33.6001 20L30.4001 20L30.4001 23L33.6001 23Z" fill="white"/>
<path d="M27.2 29L27.2 26L24 26L24 29L27.2 29Z" fill="white"/>
<path d="M40 29L40 26L36.8 26L36.8 29L40 29Z" fill="white"/>
<path d="M27.2 35L27.2 32L24 32L24 35L27.2 35Z" fill="white"/>
<path d="M40 35L40 32L36.8 32L36.8 35L40 35Z" fill="white"/>
<path d="M27.2 23L27.2 20L24 20L24 23L27.2 23Z" fill="white"/>
<path d="M40 23L40 20L36.8 20L36.8 23L40 23Z" fill="white"/>
</g>
<defs>
<filter id="filter0_d" x="0" y="0" width="64" height="64" filterUnits="userSpaceOnUse" color-interpolation-filters="sRGB">
<feFlood flood-opacity="0" result="BackgroundImageFix"/>
<feColorMatrix in="SourceAlpha" type="matrix" values="0 0 0 0 0 0 0 0 0 0 0 0 0 0 0 0 0 0 127 0"/>
<feOffset dy="4"/>
<feGaussianBlur stdDeviation="4"/>
<feColorMatrix type="matrix" values="0 0 0 0 0.262009 0 0 0 0 0 0 0 0 0 0 0 0 0 0.24 0"/>
<feBlend mode="normal" in2="BackgroundImageFix" result="effect1_dropShadow"/>
<feBlend mode="normal" in="SourceGraphic" in2="effect1_dropShadow" result="shape"/>
</filter>
</defs>
</svg>
